<?xml version="1.0" encoding="iso-8859-1"?>
<!-- Uploaded to: SVG Repo, www.svgrepo.com, Generator: SVG Repo Mixer Tools -->
<svg xmlns="http://www.w3.org/2000/svg" xmlns:xlink="http://www.w3.org/1999/xlink" version="1.1" id="Capa_1"  viewBox="0 0 470 470" xml:space="preserve" width="512" height="512">
<g>
	<path style="fill:#FD7555;" d="M441.681,272.498l20.819-160H349.97c-33.99-19.1-73.21-30-114.97-30s-80.98,10.9-114.96,30H7.5   l17.82,160l-17.82,160h112.57c33.98,19.09,73.18,30,114.93,30c41.76,0,80.97-10.9,114.95-30H462.5L441.681,272.498z"/>
	<polygon style="fill:#EF431D;" points="462.5,112.498 462.5,432.498 432.5,402.498 432.5,142.498  "/>
	<polygon style="fill:#FDCE6E;" points="432.5,142.498 432.5,402.498 402.5,402.498 352.5,272.498 402.5,142.498  "/>
	<path style="fill:#FEFDCA;" d="M402.5,142.498v260h-60.4l-6.85,3.85c-30.44,17.11-65.11,26.15-100.25,26.15   c-35.12,0-69.78-9.04-100.24-26.15l-6.84-3.85H37.5v-260h90.39l6.84-3.85c30.45-17.1,65.12-26.15,100.27-26.15   s69.83,9.05,100.27,26.15l6.84,3.85H402.5z"/>
	<polygon style="fill:#FE9F88;" points="37.5,142.498 37.5,402.498 7.5,432.498 7.5,112.498  "/>
	<path style="fill:#FDA162;" d="M291.792,199.503h-30l30,50h30v-20C321.792,213.003,308.292,199.503,291.792,199.503z"/>
	<path style="fill:#FDCE6E;" d="M261.792,199.503h-85c-16.5,0-30,13.5-30,30v20h145v-20   C291.792,213.003,278.292,199.503,261.792,199.503z"/>
	<path style="fill:#FD7555;" d="M146.792,249.503v30l145,90c16.5,0,30-13.5,30-30v-90H146.792z"/>
	<path style="fill:#FDA162;" d="M146.792,279.503v60c0,16.5,13.5,30,30,30h115v-90H146.792z"/>
	<polygon style="fill:#FE9F88;" points="462.5,7.496 462.5,37.496 432.5,37.496 412.5,22.496 432.5,7.496  "/>
	<path style="fill:#FDCE6E;" d="M432.5,7.496v30h-410c-8.28,0-15-6.71-15-15c0-8.28,6.72-15,15-15H432.5z"/>
	<path d="M139.292,339.503c0,20.678,16.822,37.5,37.5,37.5h115c20.678,0,37.5-16.822,37.5-37.5v-52.5h22.5   c4.143,0,7.5-3.357,7.5-7.5s-3.357-7.5-7.5-7.5h-22.5v-15h2.5c4.143,0,7.5-3.357,7.5-7.5s-3.357-7.5-7.5-7.5h-2.5v-12.5   c0-20.678-16.822-37.5-37.5-37.5h-13.255c-3.484-17.096-18.635-30-36.745-30h-15c-18.11,0-33.261,12.904-36.745,30h-13.255   c-20.678,0-37.5,16.822-37.5,37.5v12.5h-2.5c-4.142,0-7.5,3.357-7.5,7.5s3.358,7.5,7.5,7.5h177.5v82.5   c0,12.406-10.094,22.5-22.5,22.5h-115c-12.407,0-22.5-10.094-22.5-22.5v-60c0-4.143-3.358-7.5-7.5-7.5h-30   c-4.142,0-7.5,3.357-7.5,7.5s3.358,7.5,7.5,7.5h22.5V339.503z M226.792,177.003h15c9.777,0,18.114,6.271,21.21,15h-57.42   C208.678,183.274,217.015,177.003,226.792,177.003z M154.292,229.503c0-12.406,10.093-22.5,22.5-22.5h115   c12.406,0,22.5,10.094,22.5,22.5v12.5h-160V229.503z"/>
	<circle cx="375.422" cy="365" r="7.5"/>
	<circle cx="105" cy="180" r="7.5"/>
	<circle cx="75" cy="210" r="7.5"/>
	<path d="M468.515,436.967c0.074-0.1,0.152-0.197,0.221-0.301c0.074-0.111,0.139-0.226,0.207-0.34   c0.057-0.096,0.118-0.19,0.171-0.29c0.062-0.115,0.114-0.233,0.169-0.351c0.049-0.104,0.101-0.207,0.146-0.314   c0.048-0.115,0.086-0.232,0.128-0.349c0.041-0.114,0.085-0.227,0.12-0.344c0.036-0.118,0.062-0.238,0.092-0.358   c0.029-0.118,0.063-0.234,0.086-0.354c0.028-0.141,0.045-0.283,0.065-0.425c0.014-0.1,0.033-0.199,0.043-0.3   c0.025-0.249,0.038-0.498,0.037-0.748v-319.99c0-0.25-0.013-0.499-0.037-0.748c-0.01-0.102-0.029-0.2-0.043-0.3   c-0.02-0.142-0.037-0.284-0.065-0.425c-0.024-0.12-0.057-0.236-0.086-0.354c-0.03-0.12-0.056-0.24-0.092-0.358   c-0.036-0.117-0.079-0.23-0.12-0.344c-0.042-0.116-0.08-0.234-0.127-0.348c-0.044-0.107-0.097-0.21-0.146-0.315   c-0.055-0.117-0.107-0.235-0.169-0.35c-0.053-0.099-0.114-0.193-0.171-0.29c-0.068-0.114-0.132-0.229-0.207-0.34   c-0.069-0.104-0.147-0.201-0.221-0.301c-0.072-0.097-0.139-0.195-0.216-0.289c-0.131-0.16-0.272-0.312-0.416-0.46   c-0.028-0.029-0.051-0.06-0.079-0.088c-0.027-0.027-0.056-0.049-0.083-0.075c-0.15-0.146-0.304-0.288-0.466-0.421   c-0.087-0.072-0.18-0.134-0.269-0.201c-0.106-0.08-0.211-0.162-0.321-0.236c-0.103-0.069-0.21-0.129-0.316-0.192   c-0.104-0.063-0.207-0.128-0.315-0.186c-0.105-0.056-0.212-0.103-0.319-0.154c-0.115-0.055-0.229-0.112-0.348-0.161   c-0.101-0.042-0.205-0.075-0.307-0.113c-0.128-0.047-0.255-0.095-0.386-0.135c-0.1-0.03-0.202-0.052-0.303-0.078   c-0.136-0.035-0.271-0.073-0.41-0.1c-0.111-0.022-0.223-0.034-0.334-0.051c-0.13-0.02-0.259-0.043-0.392-0.056   c-0.185-0.018-0.371-0.024-0.557-0.028c-0.06-0.001-0.118-0.009-0.178-0.009H410V45h52.5c4.143,0,7.5-3.357,7.5-7.5   s-3.357-7.5-7.5-7.5h-440c-4.136,0-7.5-3.364-7.5-7.5s3.364-7.5,7.5-7.5h440c4.143,0,7.5-3.357,7.5-7.5S466.643,0,462.5,0h-440   C10.093,0,0,10.094,0,22.5S10.093,45,22.5,45H60v60H7.5c-0.06,0-0.118,0.008-0.178,0.009c-0.186,0.004-0.372,0.01-0.557,0.028   c-0.132,0.013-0.26,0.037-0.39,0.056c-0.112,0.017-0.224,0.029-0.336,0.051c-0.138,0.027-0.271,0.064-0.406,0.099   c-0.102,0.026-0.205,0.048-0.306,0.079c-0.13,0.039-0.255,0.087-0.381,0.133c-0.104,0.038-0.209,0.072-0.312,0.114   c-0.117,0.049-0.23,0.105-0.344,0.159c-0.108,0.051-0.217,0.099-0.323,0.155c-0.107,0.058-0.21,0.123-0.314,0.186   c-0.106,0.063-0.213,0.123-0.317,0.192c-0.112,0.075-0.218,0.158-0.325,0.239c-0.088,0.066-0.179,0.127-0.265,0.198   c-0.179,0.147-0.35,0.302-0.514,0.465c-0.227,0.229-0.384,0.401-0.532,0.582c-0.071,0.087-0.133,0.178-0.2,0.268   c-0.08,0.107-0.163,0.211-0.237,0.322c-0.071,0.107-0.133,0.217-0.199,0.327c-0.06,0.1-0.123,0.198-0.178,0.302   c-0.06,0.112-0.111,0.228-0.165,0.342c-0.051,0.107-0.104,0.213-0.15,0.323c-0.046,0.112-0.083,0.226-0.124,0.339   c-0.042,0.117-0.087,0.233-0.124,0.353c-0.035,0.115-0.06,0.231-0.089,0.347c-0.03,0.121-0.064,0.241-0.089,0.364   c-0.027,0.135-0.043,0.272-0.062,0.408c-0.015,0.106-0.035,0.21-0.046,0.317C0.013,112.006,0,112.254,0,112.502v319.995   c0,0.248,0.013,0.496,0.037,0.744c0.01,0.107,0.031,0.211,0.046,0.317c0.019,0.136,0.036,0.273,0.062,0.408   c0.024,0.123,0.058,0.243,0.089,0.364c0.029,0.116,0.055,0.232,0.089,0.347c0.036,0.12,0.081,0.236,0.123,0.353   c0.041,0.114,0.078,0.228,0.124,0.34c0.046,0.11,0.099,0.215,0.149,0.322c0.054,0.115,0.105,0.23,0.165,0.343   c0.055,0.103,0.118,0.201,0.178,0.302c0.065,0.11,0.127,0.22,0.199,0.327c0.074,0.111,0.157,0.216,0.237,0.322   c0.067,0.089,0.129,0.181,0.2,0.268c0.148,0.18,0.305,0.353,0.469,0.519c0.228,0.225,0.399,0.381,0.578,0.528   c0.087,0.071,0.178,0.133,0.267,0.199c0.107,0.08,0.212,0.163,0.323,0.237c0.105,0.071,0.215,0.132,0.323,0.196   c0.102,0.061,0.202,0.125,0.307,0.182c0.11,0.059,0.223,0.109,0.336,0.162c0.109,0.052,0.217,0.106,0.329,0.153   c0.11,0.045,0.222,0.082,0.333,0.122c0.12,0.043,0.238,0.089,0.36,0.126c0.111,0.033,0.223,0.058,0.335,0.086   c0.125,0.032,0.249,0.067,0.377,0.092c0.129,0.026,0.26,0.041,0.39,0.06c0.112,0.016,0.221,0.037,0.334,0.048   C7.006,439.987,7.253,440,7.5,440h110.625c35.631,19.633,75.998,30,116.875,30c40.899,0,81.272-10.367,116.897-30H462.5   c0.247,0,0.494-0.013,0.74-0.037c0.115-0.011,0.226-0.032,0.339-0.049c0.129-0.019,0.257-0.033,0.385-0.059   c0.13-0.026,0.257-0.062,0.385-0.094c0.109-0.028,0.219-0.052,0.326-0.084c0.125-0.038,0.247-0.085,0.369-0.129   c0.108-0.039,0.217-0.074,0.324-0.118c0.115-0.048,0.226-0.104,0.338-0.157c0.109-0.052,0.22-0.1,0.328-0.158   c0.107-0.057,0.208-0.122,0.312-0.184c0.107-0.064,0.215-0.124,0.319-0.194c0.111-0.074,0.214-0.156,0.321-0.236   c0.09-0.067,0.182-0.13,0.27-0.202c0.162-0.133,0.316-0.275,0.466-0.421c0.027-0.026,0.056-0.048,0.083-0.075   c0.028-0.028,0.052-0.059,0.079-0.088c0.144-0.148,0.285-0.3,0.416-0.46C468.376,437.162,468.443,437.063,468.515,436.967z    M440,399.393V145.607l15-15v283.785L440,399.393z M45,395V287.5c0-4.143-3.358-7.5-7.5-7.5s-7.5,3.357-7.5,7.5v111.893l-15,15   V130.607l15,15V257.5c0,4.143,3.358,7.5,7.5,7.5s7.5-3.357,7.5-7.5V150h82.89c1.287,0,2.553-0.331,3.675-0.962l6.844-3.848   C167.733,128.711,201.134,120,235,120c33.869,0,67.271,8.711,96.593,25.19l6.846,3.848c1.122,0.631,2.388,0.962,3.675,0.962H425   v245h-82.9c-1.287,0-2.553,0.331-3.675,0.962l-6.844,3.847C302.252,416.289,268.854,425,235,425   c-33.837,0-67.228-8.712-96.562-25.194l-6.844-3.845c-1.122-0.63-2.387-0.961-3.673-0.961H45z M120.038,120   c1.287,0,2.552-0.331,3.674-0.962C157.515,100.041,195.997,90,235,90c39.006,0,77.49,10.041,111.291,29.038   c1.122,0.631,2.388,0.962,3.675,0.962h94.427l-15,15h-85.316l-5.134-2.886C307.381,114.376,271.438,105,235,105   c-36.435,0-72.377,9.376-103.941,27.114L125.926,135H40.607l-15-15H120.038z M75,45h320v60h-43.088   c-35.621-19.633-76-30-116.912-30c-40.909,0-81.286,10.367-116.909,30H75V45z M349.951,425c-1.287,0-2.553,0.331-3.674,0.962   C312.472,444.959,273.993,455,235,455c-38.972,0-77.443-10.041-111.256-29.039c-1.122-0.63-2.387-0.961-3.674-0.961H25.607l15-15   h85.352l5.132,2.883C162.664,430.623,198.595,440,235,440c36.423,0,72.36-9.376,103.93-27.115l5.133-2.885h85.33l15,15H349.951z"/>
</g>















</svg>